<svg width="300" height="119" viewBox="0 0 300 119" fill="none" xmlns="http://www.w3.org/2000/svg">
<path d="M291.299 100.143C293.831 100.143 295.396 101.241 296.562 102.554V100.438H300.005V111.688C300.005 114.072 299.35 115.84 298.099 117.019C296.733 118.304 294.628 118.921 291.925 118.921C289.45 118.921 287.145 118.332 285.21 117.233L286.491 114.795C288.113 115.732 289.791 116.296 291.84 116.296C294.912 116.296 296.591 114.795 296.591 111.956V110.857C295.339 112.384 293.774 113.456 291.299 113.456C287.771 113.456 284.471 110.992 284.471 106.84V106.786C284.471 102.607 287.799 100.143 291.299 100.143ZM44.2383 100.143C48.8472 100.143 52.2324 103.438 52.2324 107.482V107.536C52.2323 111.554 48.8181 114.902 44.1807 114.902C39.6004 114.902 36.215 111.608 36.2148 107.59V107.536C36.2148 103.491 39.6292 100.143 44.2383 100.143ZM98.9824 100.143C103.762 100.143 106.181 103.678 106.181 107.75C106.181 108.045 106.152 108.34 106.124 108.661H95.085C95.4548 110.965 97.1903 112.251 99.4092 112.251C101.088 112.251 102.284 111.661 103.479 110.562L105.498 112.251C104.076 113.858 102.112 114.902 99.3525 114.902C94.9997 114.902 91.6426 111.929 91.6426 107.562V107.509C91.6428 103.464 94.6867 100.143 98.9824 100.143ZM169.016 100.143C173.624 100.143 177.01 103.438 177.01 107.482V107.536C177.01 111.554 173.595 114.902 168.958 114.902C164.378 114.902 160.992 111.608 160.992 107.59V107.536C160.992 103.491 164.407 100.143 169.016 100.143ZM216.27 100.143C219.086 100.143 220.85 101.134 222.272 102.58L220.11 104.75C219.058 103.705 217.948 102.983 216.241 102.982C213.738 102.982 211.888 105.018 211.888 107.482V107.536C211.888 110.054 213.737 112.063 216.383 112.063C218.005 112.063 219.2 111.367 220.281 110.322L222.357 112.251C220.878 113.804 219.142 114.902 216.212 114.902C211.745 114.902 208.445 111.608 208.445 107.59V107.536C208.445 103.518 211.746 100.143 216.27 100.143ZM228.802 108.474C228.802 110.67 229.968 111.902 232.017 111.902C234.008 111.902 235.402 110.617 235.402 108.42V100.438H238.873V114.581H235.402V112.385C234.435 113.724 233.041 114.876 230.708 114.876C227.323 114.876 225.36 112.733 225.359 109.438V100.438H228.802V108.474ZM88.1494 114.58H84.707V112.223C83.5975 113.696 82.0326 114.875 79.5859 114.875C76.058 114.875 72.6152 112.223 72.6152 107.535V107.481C72.6153 102.794 76.0012 100.142 79.5859 100.142C82.061 100.142 83.6259 101.294 84.707 102.633V95.0254H88.1494V114.58ZM134.788 100.195C136.666 100.195 138.714 100.812 140.308 101.803L138.941 104.106C137.49 103.276 135.954 102.767 134.702 102.767C133.365 102.767 132.597 103.357 132.597 104.16V104.214C132.597 105.258 134.219 105.687 135.982 106.223C138.173 106.866 140.648 107.803 140.648 110.348V110.401C140.648 113.375 138.202 114.848 135.072 114.848C132.938 114.848 130.577 114.124 128.699 112.731L130.235 110.535C131.885 111.687 133.621 112.276 135.157 112.276C136.636 112.276 137.49 111.687 137.49 110.75V110.696C137.49 109.598 135.898 109.223 134.134 108.714C131.915 108.125 129.438 107.267 129.438 104.562V104.508C129.439 101.829 131.801 100.195 134.788 100.195ZM184.663 100.437H188.703V103.223H184.663V110.16C184.663 111.419 185.346 111.929 186.513 111.929C187.281 111.929 187.964 111.768 188.646 111.446V114.099C187.793 114.554 186.854 114.821 185.545 114.821C183.013 114.821 181.221 113.777 181.221 110.67V103.223H179.314V100.437H181.221V96.5527H184.663V100.437ZM28.1641 110.134L31.2363 100.437H34.708L29.7861 114.688H26.6846L23.3271 105.017L19.9414 114.688H16.8691L12.0039 100.437H15.5322L18.5479 110.134L21.876 100.383H24.835L28.1641 110.134ZM63.8711 100.143C67.2567 100.143 69.2197 102.286 69.2197 105.554V114.581H65.7773V106.545C65.7773 104.348 64.611 103.089 62.5625 103.089C60.571 103.089 59.1768 104.402 59.1768 106.599V114.581H55.7344V100.438H59.1768V102.607C60.1441 101.295 61.5383 100.143 63.8711 100.143ZM275.727 100.143C279.112 100.143 281.075 102.286 281.075 105.554V114.581H277.633V106.545C277.633 104.348 276.466 103.089 274.418 103.089C272.426 103.089 271.032 104.402 271.032 106.599V114.581H267.59V100.438H271.032V102.607C272 101.295 273.394 100.143 275.727 100.143ZM118.401 100.169V103.598H118.202C115.186 103.598 113.081 105.446 113.081 109.196V114.58H109.639V100.437H113.081V103.624C114.02 101.508 115.756 100.062 118.401 100.169ZM147.614 102.606C148.582 101.294 149.976 100.142 152.309 100.142C155.694 100.142 157.657 102.285 157.657 105.553V114.58H154.215V106.544C154.215 104.347 153.048 103.089 151 103.089C149.008 103.089 147.614 104.401 147.614 106.598V114.58H144.172V95.0254H147.614V102.606ZM246.815 114.58H243.373V95.0254H246.815V114.58ZM254.96 114.58H251.518V95.0254H254.96V114.58ZM263.101 114.58H259.658V100.436H263.101V114.58ZM44.1807 102.982C41.4212 102.983 39.6572 105.018 39.6572 107.482V107.536C39.6573 110.001 41.564 112.063 44.2383 112.063C47.0262 112.063 48.7899 110.027 48.79 107.59V107.536C48.79 105.045 46.8835 102.982 44.1807 102.982ZM168.958 102.982C166.199 102.983 164.435 105.018 164.435 107.482V107.536C164.435 110.001 166.341 112.063 169.016 112.063C171.804 112.063 173.567 110.027 173.567 107.59V107.536C173.567 105.045 171.661 102.982 168.958 102.982ZM80.4111 102.954C78.0498 102.954 76.086 104.669 76.0859 107.481V107.535C76.0859 110.267 78.0782 112.062 80.4111 112.062C82.7155 112.062 84.7637 110.241 84.7637 107.535V107.481C84.7636 104.749 82.7154 102.954 80.4111 102.954ZM292.209 102.875C289.819 102.875 287.942 104.429 287.941 106.759V106.812C287.941 109.116 289.848 110.697 292.209 110.697C294.599 110.697 296.619 109.116 296.619 106.812V106.759C296.619 104.455 294.599 102.875 292.209 102.875ZM98.9541 102.795C96.8491 102.795 95.3697 104.321 95.0566 106.518H102.767C102.539 104.428 101.23 102.795 98.9541 102.795ZM263.214 98.2666H259.516V95.1855H263.214V98.2666ZM260.821 0C274.591 9.93367e-05 282.833 4.32139 289.613 10.6074L279.39 21.707C273.756 16.8943 268.019 13.9473 260.717 13.9473C248.407 13.9473 239.54 23.5729 239.54 35.3594V35.5557C239.54 47.3422 248.198 57.165 260.717 57.165C269.062 57.165 274.174 54.0214 279.911 49.1104L290.135 58.834C282.624 66.3969 274.278 71.1122 260.195 71.1123C238.706 71.1123 222.744 55.4952 222.744 35.7529V35.5557C222.744 16.0098 238.393 0 260.821 0ZM161.851 0.196289C172.491 0.196331 181.567 3.33899 188.974 8.9375L180.628 20.332C174.16 16.1085 167.796 13.5547 161.642 13.5547C155.487 13.5547 152.253 16.2064 152.253 19.5459V19.7422C152.253 24.2603 155.383 25.7335 168.005 28.7783C182.818 32.4125 191.164 37.4223 191.164 49.4053V49.6016C191.164 63.2541 180.107 70.9149 164.354 70.915C153.297 70.915 142.134 67.2815 133.371 59.915L142.864 49.209C149.436 54.3164 156.322 57.5576 164.667 57.5576C171.239 57.5576 175.203 55.1021 175.203 51.0752V50.8779C175.203 47.0476 172.699 45.0832 160.494 42.1367C145.785 38.6008 136.292 34.7699 136.292 21.1172V20.9209C136.292 8.44684 146.933 0.196289 161.851 0.196289ZM78.8652 47.7354L93.9922 1.17871H110.787L85.8555 70.4248H71.876L55.3936 25.4395L38.9111 70.4248H24.9326L0 1.17871H17.2129L32.3389 47.7354L48.7178 0.982422H62.4873L78.8652 47.7354Z" fill="white"/>
</svg>
