<svg width="461" height="138" viewBox="0 0 461 138" fill="none" xmlns="http://www.w3.org/2000/svg">
<path d="M361.998 119.156C356.464 119.156 349.376 115.89 344.472 111.752C334.345 103.207 332.316 82.1191 335.896 70.1212C341.432 51.5696 361.22 45.09 378.825 48.4433C399.492 52.3791 404.724 69.5808 404.145 88.6363H358.068C356.082 99.6209 364.166 108.654 375.128 103.675C378.866 101.978 380.98 95.2355 381.518 95.2355H403.322C403.317 105.755 394.776 113.022 385.785 116.837L383.109 117.616C379.597 118.638 375.958 119.156 372.301 119.156H361.995H361.998ZM381.107 74.613C380.191 55.5065 358.772 55.656 358.068 74.613H381.107Z" fill="#030303"/>
<path d="M432.944 49.8675H408.26V117.506H432.944V49.8675Z" fill="#030303"/>
<path d="M139.201 20.1718H114.518V38.3192H139.201V20.1718Z" fill="#039FE7"/>
<path d="M408.26 20.1718H432.944V38.3192L408.256 38.3237L408.26 20.1718Z" fill="#030303"/>
<path d="M330.916 117.506H306.232V71.7259C306.232 70.6008 303.743 66.3892 302.545 65.5243C296.34 61.047 286.485 66.0282 286.485 73.376V117.506H261.801V73.376C261.801 69.0991 257.735 64.1644 253.151 63.8388C248.912 63.5376 242.053 67.1135 242.053 71.7259V117.506H217.369V49.8675H241.231L241.24 60.5863C242.624 59.8986 242.819 57.9263 244.091 56.4456C253.673 45.2972 272.656 44.9051 281.929 56.5088C282.672 57.4379 282.798 58.8067 283.14 59.2552C284.673 61.2607 285.026 58.3205 286.022 57.274C295.481 47.3359 310.591 43.7235 322.276 52.3426C325.377 54.6295 330.917 62.1511 330.917 65.9518V117.506H330.916Z" fill="#030303"/>
<path d="M168 49.8675C168 49.8675 168.202 55.2562 168.408 56.4622C178.813 43.4588 203.443 44.7268 210.564 60.4003C211.192 61.7812 213.255 68.1777 213.255 69.2508V117.505H188.571V76.6739C188.571 74.7514 187.086 69.5177 185.963 67.7403C182.866 62.83 175.785 62.4844 171.687 66.3471C170.486 67.4789 168 72.861 168 74.1999V117.505H144.55C144.463 117.505 143.316 117.592 143.316 117.505V49.8675H168Z" fill="#030303"/>
<path d="M139.201 49.8675H114.518V117.506H139.201V49.8675Z" fill="#039FE7"/>
<path d="M76.6422 63.4191L107.934 20.1718H77.4895L47.8766 61.4147L47.8689 20.1718H21.5391V117.506H47.8689V66.3649L79.1355 117.506H79.8138H111.225L76.6422 63.4191Z" fill="#030303"/>
</svg>
