<svg width="380" height="150" viewBox="0 0 380 150" fill="none" xmlns="http://www.w3.org/2000/svg">
<path d="M368.223 126.313C371.416 126.313 373.39 127.699 374.861 129.354V126.686H379.204V140.877C379.204 143.884 378.379 146.114 376.8 147.601C375.077 149.222 372.422 150 369.013 150C365.891 150 362.983 149.256 360.543 147.871L362.158 144.796C364.204 145.978 366.321 146.688 368.904 146.688C372.78 146.688 374.897 144.796 374.897 141.215V139.829C373.318 141.755 371.345 143.106 368.223 143.106C363.773 143.106 359.61 139.998 359.61 134.761V134.693C359.61 129.422 363.809 126.314 368.223 126.313ZM56.5928 126.313C62.4063 126.314 66.6768 130.47 66.6768 135.572V135.64C66.6767 140.708 62.3699 144.932 56.5205 144.932C50.743 144.932 46.4727 140.775 46.4727 135.707V135.64C46.4727 130.538 50.7792 126.313 56.5928 126.313ZM125.646 126.313C131.675 126.314 134.726 130.774 134.726 135.91C134.726 136.282 134.689 136.653 134.653 137.059H120.729C121.196 139.964 123.385 141.586 126.185 141.586C128.302 141.586 129.809 140.843 131.316 139.458L133.864 141.586C132.07 143.613 129.593 144.932 126.112 144.932C120.622 144.931 116.388 141.18 116.388 135.673V135.605C116.388 130.503 120.228 126.313 125.646 126.313ZM213.983 126.313C219.797 126.313 224.067 130.47 224.067 135.572V135.64C224.067 140.708 219.761 144.932 213.912 144.932C208.134 144.932 203.863 140.775 203.863 135.707V135.64C203.863 130.538 208.17 126.314 213.983 126.313ZM273.584 126.313C277.137 126.314 279.362 127.564 281.156 129.389L278.429 132.125C277.101 130.807 275.701 129.896 273.548 129.896C270.39 129.896 268.058 132.464 268.058 135.572V135.64C268.058 138.816 270.39 141.35 273.728 141.35C275.773 141.35 277.28 140.471 278.644 139.153L281.264 141.586C279.398 143.546 277.208 144.932 273.512 144.932C267.878 144.931 263.715 140.775 263.715 135.707V135.64C263.715 130.571 267.878 126.313 273.584 126.313ZM289.392 136.821C289.392 139.592 290.864 141.146 293.447 141.146C295.959 141.145 297.718 139.523 297.718 136.753V126.685H302.096V144.524H297.718V141.754C296.498 143.443 294.739 144.896 291.796 144.896C287.526 144.896 285.05 142.193 285.05 138.037V126.685H289.392V136.821ZM111.979 144.523H107.637V141.551C106.237 143.409 104.263 144.896 101.177 144.896C96.7271 144.895 92.3849 141.55 92.3848 135.638V135.569C92.385 129.657 96.6553 126.312 101.177 126.312C104.299 126.312 106.273 127.765 107.637 129.454V119.858H111.979V144.523ZM170.809 126.383C173.177 126.383 175.761 127.16 177.771 128.41L176.048 131.316C174.218 130.269 172.279 129.627 170.7 129.627C169.014 129.627 168.045 130.37 168.045 131.384V131.451C168.045 132.769 170.09 133.31 172.315 133.985C175.079 134.796 178.201 135.979 178.201 139.188V139.257C178.201 143.007 175.114 144.865 171.167 144.865C168.476 144.865 165.497 143.953 163.129 142.196L165.066 139.426C167.148 140.879 169.337 141.622 171.274 141.622C173.141 141.622 174.218 140.878 174.218 139.695V139.628C174.218 138.243 172.207 137.77 169.982 137.128C167.183 136.385 164.062 135.303 164.062 131.891V131.823C164.062 128.444 167.041 126.383 170.809 126.383ZM233.717 126.685H238.813V130.198H233.717V138.95C233.717 140.538 234.579 141.18 236.05 141.18C237.019 141.18 237.88 140.978 238.741 140.572V143.917C237.665 144.491 236.481 144.829 234.83 144.829C231.636 144.829 229.375 143.511 229.375 139.592V130.198H226.971V126.685H229.375V121.785H233.717V126.685ZM36.3203 138.918L40.1963 126.687H44.5742L38.3662 144.662H34.4541L30.2197 132.465L25.9492 144.662H22.0732L15.9365 126.687H20.3867L24.1904 138.918L28.3896 126.619H32.1221L36.3203 138.918ZM81.3604 126.313C85.6305 126.314 88.1063 129.017 88.1064 133.139V144.526H83.7646V134.39C83.7646 131.619 82.2928 130.03 79.709 130.03C77.1971 130.03 75.4385 131.686 75.4385 134.457V144.526H71.0967V126.686H75.4385V129.422C76.6586 127.766 78.4177 126.313 81.3604 126.313ZM150.142 126.348V130.673H149.891C146.087 130.673 143.431 133.004 143.431 137.734V144.526H139.088V126.686H143.431V130.707C144.615 128.038 146.804 126.213 150.142 126.348ZM348.579 126.313C352.849 126.314 355.325 129.017 355.325 133.139V144.526H350.983V134.39C350.983 131.619 349.512 130.03 346.928 130.03C344.416 130.03 342.657 131.686 342.657 134.457V144.526H338.315V126.686H342.657V129.422C343.877 127.766 345.637 126.313 348.579 126.313ZM332.656 144.524H328.314V126.684H332.656V144.524ZM186.988 129.42C188.208 127.764 189.967 126.312 192.91 126.312C197.18 126.312 199.656 129.015 199.656 133.137V144.523H195.314V134.387C195.314 131.616 193.842 130.028 191.259 130.028C188.747 130.029 186.988 131.685 186.988 134.455V144.523H182.646V119.858H186.988V129.42ZM312.113 144.523H307.771V119.858H312.113V144.523ZM322.389 144.523H318.046V119.858H322.389V144.523ZM56.5205 129.896C53.0397 129.896 50.8145 132.464 50.8145 135.572V135.64C50.8145 138.748 53.2195 141.35 56.5928 141.35C60.1095 141.35 62.334 138.782 62.334 135.707V135.64C62.334 132.497 59.9297 129.896 56.5205 129.896ZM213.912 129.896C210.431 129.896 208.206 132.464 208.206 135.572V135.64C208.206 138.748 210.61 141.349 213.983 141.35C217.5 141.35 219.726 138.782 219.726 135.707V135.64C219.726 132.497 217.321 129.896 213.912 129.896ZM102.218 129.859C99.2394 129.859 96.7629 132.022 96.7627 135.569V135.638C96.7629 139.084 99.2752 141.348 102.218 141.348C105.124 141.348 107.708 139.05 107.708 135.638V135.569C107.708 132.123 105.124 129.859 102.218 129.859ZM369.371 129.76C366.357 129.76 363.988 131.72 363.988 134.659V134.728C363.988 137.633 366.393 139.627 369.371 139.627C372.385 139.627 374.933 137.633 374.934 134.728V134.659C374.933 131.754 372.385 129.76 369.371 129.76ZM125.61 129.659C122.955 129.659 121.089 131.585 120.694 134.355H130.419C130.132 131.72 128.481 129.659 125.61 129.659ZM332.8 123.946H328.135V120.061H332.8V123.946ZM329.779 0C347.148 0 357.544 5.45174 366.097 13.3809L353.201 27.3799C346.096 21.3094 338.859 17.5929 329.648 17.5928C314.122 17.5928 302.937 29.7345 302.937 44.6016V44.8486C302.937 59.7157 313.858 72.1055 329.648 72.1055C340.175 72.1054 346.622 68.1408 353.859 61.9463L366.755 74.2119C357.281 83.7516 346.754 89.6982 328.99 89.6982C301.884 89.6982 281.752 69.9991 281.752 45.0967V44.8486C281.752 20.1943 301.489 0.000190773 329.779 0ZM204.946 0.249023C218.368 0.249073 229.815 4.21372 239.157 11.2754L228.631 25.6475C220.473 20.3201 212.446 17.0986 204.683 17.0986C196.919 17.0987 192.841 20.4439 192.841 24.6562V24.9033C192.841 30.6023 196.788 32.4612 212.709 36.3018C231.394 40.8858 241.921 47.2045 241.921 62.3193V62.5674C241.921 79.788 227.973 89.451 208.104 89.4512C194.157 89.4512 180.076 84.8671 169.023 75.5752L180.998 62.0713C189.288 68.5137 197.972 72.6025 208.499 72.6025C216.788 72.6025 221.789 69.505 221.789 64.4258V64.1777C221.789 59.3459 218.631 56.8681 203.235 53.1514C184.682 48.6912 172.708 43.8587 172.708 26.6377V26.3906C172.708 10.6563 186.13 0.249023 204.946 0.249023ZM100.271 60.2139L119.352 1.48828H140.536L109.088 88.833H91.4561L70.666 32.0898L49.876 88.833H32.2432L0.794922 1.48828H22.5059L41.5859 60.2139L62.2441 1.24121H79.6133L100.271 60.2139Z" fill="#141418"/>
</svg>
