<svg width="40" height="40" viewBox="0 0 40 40" fill="none" xmlns="http://www.w3.org/2000/svg">
<path d="M29.2673 29.9499H10.734C4.10065 29.9499 2.08398 27.9332 2.08398 21.2999V10.7333C2.08398 4.09992 4.10065 2.08325 10.734 2.08325H29.2506C35.884 2.08325 37.9006 4.09992 37.9006 10.7333V21.2833C37.9173 27.9333 35.9006 29.9499 29.2673 29.9499ZM10.734 4.58325C5.50065 4.58325 4.58398 5.49992 4.58398 10.7333V21.2833C4.58398 26.5166 5.50065 27.4332 10.734 27.4332H29.2506C34.484 27.4332 35.4006 26.5166 35.4006 21.2833V10.7333C35.4006 5.49992 34.484 4.58325 29.2506 4.58325H10.734Z" fill="white"/>
<path d="M20 37.9171C19.3167 37.9171 18.75 37.3504 18.75 36.6671V28.7004C18.75 28.0171 19.3167 27.4504 20 27.4504C20.6833 27.4504 21.25 28.0171 21.25 28.7004V36.6671C21.25 37.3504 20.6833 37.9171 20 37.9171Z" fill="white"/>
<path d="M36.6673 22.9167H3.33398C2.65065 22.9167 2.08398 22.3501 2.08398 21.6667C2.08398 20.9834 2.65065 20.4167 3.33398 20.4167H36.6673C37.3507 20.4167 37.9173 20.9834 37.9173 21.6667C37.9173 22.3501 37.3507 22.9167 36.6673 22.9167Z" fill="white"/>
<path d="M27.5 37.9167H12.5C11.8167 37.9167 11.25 37.3501 11.25 36.6667C11.25 35.9834 11.8167 35.4167 12.5 35.4167H27.5C28.1833 35.4167 28.75 35.9834 28.75 36.6667C28.75 37.3501 28.1833 37.9167 27.5 37.9167Z" fill="white"/>
</svg>
