<svg width="40" height="40" viewBox="0 0 40 40" fill="none" xmlns="http://www.w3.org/2000/svg">
<path d="M19.9993 37.9167C11.266 37.9167 4.16602 30.8167 4.16602 22.0833C4.16602 13.35 11.266 6.25 19.9993 6.25C28.7327 6.25 35.8327 13.35 35.8327 22.0833C35.8327 30.8167 28.7327 37.9167 19.9993 37.9167ZM19.9993 8.75C12.6493 8.75 6.66602 14.7333 6.66602 22.0833C6.66602 29.4333 12.6493 35.4167 19.9993 35.4167C27.3493 35.4167 33.3327 29.4333 33.3327 22.0833C33.3327 14.7333 27.3493 8.75 19.9993 8.75Z" fill="white"/>
<path d="M20 22.9166C19.3167 22.9166 18.75 22.3499 18.75 21.6666V13.3333C18.75 12.6499 19.3167 12.0833 20 12.0833C20.6833 12.0833 21.25 12.6499 21.25 13.3333V21.6666C21.25 22.3499 20.6833 22.9166 20 22.9166Z" fill="white"/>
<path d="M25 4.58325H15C14.3167 4.58325 13.75 4.01659 13.75 3.33325C13.75 2.64992 14.3167 2.08325 15 2.08325H25C25.6833 2.08325 26.25 2.64992 26.25 3.33325C26.25 4.01659 25.6833 4.58325 25 4.58325Z" fill="white"/>
</svg>
