<svg width="40" height="40" viewBox="0 0 40 40" fill="none" xmlns="http://www.w3.org/2000/svg">
<path d="M26.666 2.08301C27.3563 2.08301 27.9159 2.64276 27.916 3.33301V4.68066C30.297 4.94363 32.3592 5.64527 33.8447 7.29785C35.5489 9.19387 36.25 12.0733 36.25 16.084V26.3838C36.25 29.8348 35.8522 32.8274 34.0771 34.917C32.2568 37.0598 29.2834 37.9326 25 37.9326H15C10.7166 37.9326 7.74318 37.0598 5.92285 34.917C4.14778 32.8274 3.75004 29.8348 3.75 26.3838V16.084C3.75 12.0731 4.45053 9.19679 6.15527 7.30273C7.64105 5.65213 9.70352 4.95155 12.084 4.68359V3.33301C12.0841 2.64276 12.6437 2.08301 13.334 2.08301C14.0243 2.08301 14.5839 2.64276 14.584 3.33301V4.58301H25.416V3.33301C25.4161 2.64276 25.9757 2.08301 26.666 2.08301ZM14.584 8.33301C14.584 9.02336 14.0243 9.58301 13.334 9.58301C12.6436 9.58301 12.084 9.02336 12.084 8.33301V7.20312C10.1644 7.45497 8.88238 8.01257 8.01465 8.97656C6.94054 10.1701 6.25 12.262 6.25 16.084V26.3838C6.25004 29.7986 6.686 31.9552 7.82715 33.2988C8.92348 34.5894 10.9501 35.4326 15 35.4326H25C29.0499 35.4326 31.0765 34.5894 32.1729 33.2988C33.314 31.9552 33.75 29.7986 33.75 26.3838V16.084C33.75 12.2624 33.0598 10.1655 31.9854 8.96973C31.1177 8.00462 29.8352 7.4465 27.916 7.19922V8.33301C27.916 9.02336 27.3564 9.58301 26.666 9.58301C25.9757 9.58301 25.416 9.02336 25.416 8.33301V7.08301H14.584V8.33301ZM19.999 27.083C20.6893 27.083 21.2489 27.6428 21.249 28.333C21.249 29.0234 20.6894 29.583 19.999 29.583H11.666C10.9757 29.583 10.416 29.0234 10.416 28.333C10.4161 27.6428 10.9757 27.083 11.666 27.083H19.999ZM24.999 20.417C25.6894 20.417 26.249 20.9766 26.249 21.667C26.2489 22.3572 25.6893 22.917 24.999 22.917H11.666C10.9757 22.917 10.4161 22.3572 10.416 21.667C10.416 20.9766 10.9757 20.417 11.666 20.417H24.999Z" fill="white"/>
</svg>
